<svg width="48" height="48" viewBox="0 0 48 48" xmlns="http://www.w3.org/2000/svg" fill="none"><rect width="48" height="48" fill="#f1f5fb" opacity="1"/><g opacity="0.9"> <path fill-rule="evenodd" clip-rule="evenodd" d="M12 7H11V11H7V12H11V16H12V12H16V11H12V7Z" fill="#014ecc"></path> <path fill-rule="evenodd" clip-rule="evenodd" d="M12 31H11V35H7V36H11V40H12V36H16V35H12V31Z" fill="#014ecc"></path> <path fill-rule="evenodd" clip-rule="evenodd" d="M36 7H35V11H31V12H35V16H36V12H40V11H36V7Z" fill="#014ecc"></path> <path fill-rule="evenodd" clip-rule="evenodd" d="M36 31H35V35H31V36H35V40H36V36H40V35H36V31Z" fill="#014ecc"></path> </g></svg>
