<svg xmlns="http://www.w3.org/2000/svg" width="512" height="512" viewBox="0 0 512 512" fill="none"><metadata><rdf:RDF xmlns:rdf="http://www.w3.org/1999/02/22-rdf-syntax-ns#" xmlns:dc="http://purl.org/dc/elements/1.1/"><rdf:Description><dc:creator>RealFaviconGenerator</dc:creator><dc:source>https://realfavicongenerator.net</dc:source></rdf:Description></rdf:RDF></metadata><rect width="512" height="512" fill="#004ECC"></rect><path d="M255.038 67.8754H256.963C289.146 67.8754 314.591 67.8754 334.488 70.4479C354.928 73.1079 371.501 78.6729 384.608 91.3079C397.786 103.995 403.666 120.148 406.431 140.063C409.126 159.348 409.126 183.935 409.126 214.858V361.858C409.126 381.038 409.126 396.98 407.288 408.95C405.381 421.358 400.918 433.433 388.651 439.995C377.713 445.84 365.691 444.65 355.488 441.553C345.163 438.42 334.681 432.733 325.073 426.66C315.378 420.535 305.858 413.553 297.598 407.445L296.618 406.728C288.533 400.743 282.023 395.93 277.053 392.938C270.071 388.72 265.643 386.095 262.073 384.398C258.766 382.84 257.156 382.595 256.001 382.595C254.846 382.595 253.236 382.84 249.928 384.398C246.358 386.095 241.931 388.72 234.948 392.938C229.978 395.93 223.468 400.743 215.383 406.728L214.403 407.445C206.143 413.553 196.623 420.535 186.928 426.66C177.338 432.733 166.838 438.42 156.513 441.553C146.311 444.65 134.288 445.84 123.351 439.995C111.083 433.433 106.621 421.358 104.713 408.95C102.876 396.963 102.876 381.003 102.876 361.805V214.858C102.876 183.935 102.876 159.348 105.571 140.063C108.336 120.148 114.216 103.995 127.393 91.3079C140.518 78.6729 157.073 73.1079 177.513 70.4479C197.411 67.8754 222.856 67.8754 255.038 67.8754ZM129.283 181.625C129.126 191.705 129.126 203.045 129.126 215.89V360.668C129.126 381.3 129.161 395.213 130.666 404.978C132.136 414.55 134.446 416.16 135.706 416.843C137.858 417.98 141.796 418.593 148.901 416.423C155.883 414.305 164.038 410.07 172.911 404.47C181.696 398.923 190.481 392.483 198.793 386.34L200.368 385.168C207.876 379.62 215.331 374.108 221.403 370.45L221.911 370.135C228.246 366.338 233.811 362.978 238.746 360.65C244.083 358.13 249.631 356.345 256.001 356.345C262.371 356.345 267.918 358.13 273.256 360.65C278.191 362.978 283.756 366.338 290.091 370.135L290.598 370.45C296.671 374.108 304.126 379.62 311.633 385.168L313.208 386.34C321.521 392.483 330.306 398.923 339.091 404.47C347.963 410.07 356.118 414.305 363.101 416.423C370.206 418.593 374.143 417.98 376.296 416.843C377.556 416.16 379.866 414.55 381.336 404.978C382.841 395.213 382.876 381.3 382.876 360.668V215.89C382.876 203.045 382.876 191.705 382.718 181.625H129.283ZM145.611 110.208C138.296 117.26 133.903 126.885 131.558 143.703C131.051 147.325 130.648 151.21 130.333 155.375H381.668C381.353 151.21 380.951 147.325 380.443 143.703C378.098 126.885 373.706 117.26 366.391 110.208C359.006 103.085 348.821 98.7804 331.128 96.4879C313.103 94.1429 289.356 94.1254 256.001 94.1254C222.646 94.1254 198.898 94.1429 180.873 96.4879C163.181 98.7804 152.996 103.085 145.611 110.208Z" fill="#E5EFFF"></path></svg>