<svg xmlns="http://www.w3.org/2000/svg" version="1.1" xmlns:xlink="http://www.w3.org/1999/xlink" width="1000" height="1000"><g clip-path="url(#SvgjsClipPath1109)"><rect width="1000" height="1000" fill="#f4f4f5"></rect><g transform="matrix(1.953125,0,0,1.953125,0,0)"><svg xmlns="http://www.w3.org/2000/svg" version="1.1" xmlns:xlink="http://www.w3.org/1999/xlink" width="512" height="512"><svg width="512" height="512" viewBox="0 0 512 512" fill="none" xmlns="http://www.w3.org/2000/svg">
<rect width="512" height="512" fill="#F4F4F5"></rect>
<path d="M321 158.5L184.273 298.023C178.176 304.119 174.752 312.387 174.752 321.009C174.752 329.63 178.176 337.898 184.273 343.994C190.369 350.09 198.637 353.515 207.258 353.515C215.879 353.515 224.148 350.09 230.244 343.994L366.971 204.472C379.161 192.281 386.01 175.748 386.01 158.509C386.01 141.269 379.161 124.736 366.971 112.545C354.781 100.355 338.248 93.5069 321.008 93.5069C303.769 93.5069 287.235 100.355 275.045 112.545L138.886 251.499C129.712 260.526 122.415 271.279 117.417 283.14C112.419 295.001 109.819 307.734 109.766 320.604C109.714 333.475 112.21 346.228 117.111 358.129C122.013 370.03 129.222 380.843 138.323 389.944C147.423 399.045 158.236 406.254 170.137 411.155C182.038 416.056 194.792 418.553 207.662 418.5C220.533 418.448 233.266 415.848 245.127 410.85C256.987 405.852 267.741 398.555 276.768 389.38L412.926 250.427" stroke="#18181B" stroke-width="32.5" stroke-linecap="round" stroke-linejoin="round"></path>
</svg></svg></g></g><defs><clipPath id="SvgjsClipPath1109"><rect width="1000" height="1000" x="0" y="0" rx="200" ry="200"></rect></clipPath></defs></svg>